<?xml version="1.0" encoding="utf-8"?>
<!-- Generator: Adobe Illustrator 18.1.1, SVG Export Plug-In . SVG Version: 6.00 Build 0)  -->
<svg version="1.1" id="Layer_1" xmlns="http://www.w3.org/2000/svg" xmlns:xlink="http://www.w3.org/1999/xlink" x="0px" y="0px"
	 viewBox="0 0 500 500" enable-background="new 0 0 500 500" xml:space="preserve">
<path fill="#FFFFFF" stroke="#FFFFFF" stroke-miterlimit="10" d="M350,373.7L129.2,152.9c-7.4-7.4-7.4-19.3,0-26.7l0,0
	c7.4-7.4,19.3-7.4,26.7,0l220.8,220.8c7.4,7.4,7.4,19.3,0,26.7v0C369.3,381.1,357.3,381.1,350,373.7z"/>
<path fill="#FFFFFF" stroke="#FFFFFF" stroke-miterlimit="10" d="M376.6,152.9L155.8,373.7c-7.4,7.4-19.3,7.4-26.7,0l0,0
	c-7.4-7.4-7.4-19.3,0-26.7L350,126.3c7.4-7.4,19.3-7.4,26.7,0l0,0C384,133.6,384,145.6,376.6,152.9z"/>
</svg>
