<?xml version="1.0" encoding="utf-8"?>
<!-- Generator: Adobe Illustrator 18.1.1, SVG Export Plug-In . SVG Version: 6.00 Build 0)  -->
<svg version="1.1" id="Layer_1" xmlns="http://www.w3.org/2000/svg" xmlns:xlink="http://www.w3.org/1999/xlink" x="0px" y="0px"
	 viewBox="0 0 500 500" enable-background="new 0 0 500 500" xml:space="preserve">
<path fill="#FFFFFF" stroke="#FFFFFF" stroke-miterlimit="10" d="M409,182H223c-8.8,0-16-7.2-16-16v0c0-8.8,7.2-16,16-16h186
	c8.8,0,16,7.2,16,16v0C425,174.8,417.8,182,409,182z"/>
<path fill="#FFFFFF" stroke="#FFFFFF" stroke-miterlimit="10" d="M409,266H94.7c-8.8,0-16-7.2-16-16v0c0-8.8,7.2-16,16-16H409
	c8.8,0,16,7.2,16,16v0C425,258.8,417.8,266,409,266z"/>
<path fill="#FFFFFF" stroke="#FFFFFF" stroke-miterlimit="10" d="M409,350H139c-8.8,0-16-7.2-16-16v0c0-8.8,7.2-16,16-16h270
	c8.8,0,16,7.2,16,16v0C425,342.8,417.8,350,409,350z"/>
</svg>
